<svg xmlns="http://www.w3.org/2000/svg" xmlns:xlink="http://www.w3.org/1999/xlink" version="1.1" id="Ebene_1" x="0px" y="0px" width="499px" height="143px" viewBox="0 0 499 143" style="enable-background:new 0 0 499 143;" xml:space="preserve" role="img" src="/user/themes/digitalVereint/images/logos/logo.svg" alt="Logo Digital Vereint" data-src="/user/themes/digitalVereint/images/logos/logo.svg" class="injected-svg inject-me logo-5">
<style type="text/css" role="presentation">.logo-5 .st0{fill:#E24B29;}
.logo-5 .st1{fill:#E32239;}
.logo-5 .st2{fill:#2F2FA2;}
.logo-5 .st3{fill:#240023;}
</style>
<polygon class="st0" points="69.1,71.2 134.7,71.2 69.1,5.6 " role="presentation"></polygon>
<polygon class="st1" points="3.5,5.6 69.1,71.2 69.1,5.6 " role="presentation"></polygon>
<polygon class="st1" points="69.1,71.2 3.5,136.8 69.1,136.8 134.7,71.2 " role="presentation"></polygon>
<polygon class="st2" points="134.7,71.2 69.1,71.2 134.7,136.8 200.2,71.2 200.2,5.6 " role="presentation"></polygon>
<path class="st3" d="M487.8,137.8c1.2,0,2.6-0.1,4-0.4c1.4-0.3,2.6-0.6,3.6-0.9v-8.1h-4.1c-2.4,0-3.6-1.2-3.6-3.6v-23h7.7v-9.5h-7.7  V79.7h-9.4l-1.9,12.5h-5.6v9.5h5.3v24.1c0,3.4,0.9,6.3,2.7,8.6C480.7,136.7,483.7,137.8,487.8,137.8 M424.1,136.8h11.6V111  c0-2.7,0.9-5,2.6-6.8s3.9-2.8,6.5-2.8c2.5,0,4.5,0.6,5.8,1.9c1.3,1.2,1.9,3.2,1.9,6v27.4h11.6v-29.9c0-5.5-1.3-9.5-3.9-11.9  c-2.6-2.5-6.2-3.7-10.8-3.7c-5.6,0-10.3,2.3-13.9,6.9h-0.6l-0.8-5.8h-9.9v44.5H424.1z M400.6,136.8h11.6V92.2h-11.6V136.8z   M400.6,86h11.6V75.5h-11.6V86z M362.4,109.5c0.3-3.1,1.3-5.4,2.8-6.9s3.7-2.3,6.7-2.3c5.1,0,7.7,3.1,7.7,9.2  C379.6,109.5,362.4,109.5,362.4,109.5z M371.9,137.8c5.9,0,10.7-1.4,14.3-4.2c3.6-2.8,5.4-7,5.4-12.6h-11.4c0,2.5-0.7,4.4-2.2,5.8  s-3.5,2-5.9,2c-3.4,0-5.9-0.9-7.4-2.8s-2.3-4.8-2.4-8.8h29.3v-2.7c0-7.9-1.6-13.8-4.9-17.6c-3.3-3.8-8.2-5.7-14.8-5.7  c-7.2,0-12.5,1.9-16.1,5.7c-3.5,3.8-5.3,9.7-5.3,17.6s1.8,13.8,5.3,17.6C359.3,135.9,364.7,137.8,371.9,137.8 M320.5,136.8h11.6  v-21.5c0-4.2,0.8-7.3,2.5-9.4s4.4-3.1,8.2-3.1h3.2V92c-0.2-0.1-0.8-0.3-1.6-0.5c-0.8-0.2-1.8-0.3-2.8-0.3c-2.5,0-4.5,0.7-6,2.2  s-2.8,3.5-3.7,6h-0.6l-0.9-7.2h-9.9L320.5,136.8L320.5,136.8z M282.4,109.5c0.3-3.1,1.3-5.4,2.8-6.9s3.7-2.3,6.7-2.3  c5.1,0,7.7,3.1,7.7,9.2C299.6,109.5,282.4,109.5,282.4,109.5z M291.8,137.8c5.9,0,10.7-1.4,14.3-4.2c3.6-2.8,5.4-7,5.4-12.6h-11.4  c0,2.5-0.7,4.4-2.2,5.8s-3.5,2-5.9,2c-3.4,0-5.9-0.9-7.4-2.8s-2.3-4.8-2.4-8.8h29.3v-2.7c0-7.9-1.6-13.8-4.9-17.6  c-3.3-3.8-8.2-5.7-14.8-5.7c-7.2,0-12.5,1.9-16.1,5.7c-3.5,3.8-5.3,9.7-5.3,17.6s1.8,13.8,5.3,17.6  C279.3,135.9,284.6,137.8,291.8,137.8 M236.9,136.8h13.7l21-58.1h-12.8L248,110.5c-0.5,1.2-1.1,3.2-1.9,6.2  c-0.8,2.9-1.4,4.9-1.7,5.8H244c-0.3-1-0.8-2.7-1.6-5.2s-1.5-4.8-2.2-6.8l-10.9-31.9H216L236.9,136.8z" role="presentation"></path>
<path class="st3" d="M456.9,66.5h11.6V5.2h-11.6V66.5z M423.7,58.3c-1.9,0-3.3-0.4-4.3-1.3c-0.9-0.8-1.4-2-1.4-3.4  c0-4.5,5.1-6.8,15.2-6.8v1.4c0,3-0.8,5.5-2.3,7.3C429.4,57.4,427,58.3,423.7,58.3 M420.1,67.5c3.4,0,6.1-0.5,8.3-1.5s4-2.4,5.6-4.4  h0.5c0.6,1.9,1.6,3.3,3.2,4.3s3.5,1.5,5.8,1.5c2.7,0,4.9-0.5,6.7-1.4v-8h-2.4c-0.8,0-1.6-0.2-2.1-0.7c-0.6-0.5-0.8-1.2-0.8-2.2V35.4  c0-4.7-1.5-8.3-4.5-10.8s-7.6-3.7-13.7-3.7c-5.5,0-9.9,1.1-13.2,3.4c-3.3,2.3-5,5.3-5,9c0,0.9,0,1.5,0.1,1.9h11.2v-1.3  c0-1.1,0.6-2,1.7-2.8s3-1.2,5.5-1.2c2.4,0,4.1,0.5,5,1.6s1.3,2.6,1.3,4.6v3.1c-8.6,0-15.2,1.2-19.9,3.6c-4.7,2.4-7,6.5-7,12.2  c0,4.7,1.4,8,4.3,9.8C413.4,66.6,416.6,67.5,420.1,67.5 M393.5,67.5c1.2,0,2.6-0.1,4-0.4s2.6-0.6,3.6-0.9V58H397  c-2.4,0-3.6-1.2-3.6-3.6v-23h7.7v-9.5h-7.7V9.4H384l-1.9,12.5h-5.6v9.5h5.3v24.1c0,3.4,0.9,6.3,2.7,8.6  C386.4,66.3,389.4,67.5,393.5,67.5 M358,66.5h11.6V21.9H358V66.5z M358,15.7h11.6V5.2H358V15.7z M318.5,73.8c-1.3,0-2.4-0.4-3.2-1.1  c-0.8-0.7-1.3-1.7-1.3-2.9c0-1.1,0.4-2.1,1.3-2.8c0.9-0.7,1.9-1.1,3.2-1.1h16.4c1.3,0,2.4,0.3,3.3,1s1.3,1.6,1.3,2.9  c0,1.2-0.5,2.1-1.4,2.9c-1,0.7-2.2,1.1-3.6,1.1H318.5z M325.9,43.3c-2.7,0-4.8-0.6-6.1-1.9c-1.4-1.3-2.1-3.1-2.1-5.4  c0-2.3,0.7-4.1,2.1-5.4s3.4-1.9,6.1-1.9s4.8,0.6,6.2,1.9c1.4,1.3,2.1,3.1,2.1,5.4s-0.7,4.1-2.1,5.4S328.6,43.3,325.9,43.3   M313.4,81.9h21.1c3,0,5.8-0.6,8.4-1.7c2.5-1.1,4.5-2.7,6-4.8c1.5-2.1,2.2-4.5,2.2-7.2c0-3.6-1.1-6.4-3.3-8.6  c-2.2-2.2-4.9-3.3-8.2-3.3h-20.2c-0.8,0-1.5-0.2-2-0.7s-0.8-1.1-0.8-1.7c0-0.8,0.3-1.4,0.9-1.9s1.4-0.7,2.4-0.7h6.8  c6.2,0,10.9-1.4,14.2-4.1c3.3-2.7,5-6.4,5-11.1c0-4.2-1.4-7.6-4.2-10.3c3.1-0.7,5.4-2,7.1-3.9s2.5-4.4,2.5-7.5h-11.4  c0,1.1-0.4,2.4-1.1,3.9c-0.8,1.5-2,2.8-3.7,3.9c-2.5-0.8-5.5-1.3-9-1.3c-6.3,0-11.2,1.4-14.6,4.1s-5.1,6.4-5.1,11.1  c0,5.4,2.2,9.4,6.5,12c-2.3,0.6-4.2,1.5-5.7,2.9s-2.2,3-2.2,4.9c0,3,1.4,5.2,4.3,6.7c-4.6,2.1-6.9,5.1-6.9,9.1c0,3,1.1,5.4,3.2,7.4  C307.7,80.9,310.3,81.9,313.4,81.9 M282.7,66.5h11.6V21.9h-11.6V66.5z M282.7,15.7h11.6V5.2h-11.6V15.7z M233.5,56V18.8h11.8  c5,0,8.7,1.5,11.3,4.5s3.9,7.3,3.9,12.8v2.5c0,5.5-1.3,9.8-3.9,12.8s-6.3,4.5-11.3,4.5h-11.8V56z M221.2,66.5h24.1  c8.9,0,15.7-2.4,20.5-7.2s7.2-12.1,7.2-21.8s-2.4-17-7.2-21.8c-4.8-4.8-11.7-7.2-20.5-7.2h-24.1L221.2,66.5L221.2,66.5z" role="presentation"></path>
</svg>
